<?xml version="1.0" encoding="UTF-8" standalone="no"?>
<svg
   width="95"
   height="60"
   viewBox="0 0 25.135 15.875"
   version="1.1"
   id="svg1630"
   sodipodi:docname="icon-usa-flag-small.svg"
   inkscape:version="1.1.1 (3bf5ae0, 2021-09-20)"
   xmlns:inkscape="http://www.inkscape.org/namespaces/inkscape"
   xmlns:sodipodi="http://sodipodi.sourceforge.net/DTD/sodipodi-0.dtd"
   xmlns="http://www.w3.org/2000/svg"
   xmlns:svg="http://www.w3.org/2000/svg">
  <defs
     id="defs1634" />
  <sodipodi:namedview
     id="namedview1632"
     pagecolor="#ffffff"
     bordercolor="#666666"
     borderopacity="1.0"
     inkscape:pageshadow="2"
     inkscape:pageopacity="0.0"
     inkscape:pagecheckerboard="0"
     showgrid="false"
     inkscape:zoom="10.350765"
     inkscape:cx="30.529144"
     inkscape:cy="36.857178"
     inkscape:window-width="1910"
     inkscape:window-height="1125"
     inkscape:window-x="5"
     inkscape:window-y="5"
     inkscape:window-maximized="1"
     inkscape:current-layer="svg1630"
     inkscape:snap-global="true"
     inkscape:snap-bbox="true"
     inkscape:snap-bbox-midpoints="true" />
  <path
     style="opacity:1;fill:#fff;fill-opacity:1;stroke:none;stroke-width:.579673;stop-color:#000"
     d="M0 0h25.135v15.875H0z"
     id="path1610" />
  <path
     style="opacity:1;fill:#000001;fill-opacity:1;stroke:none;stroke-width:0.668874;stop-color:#000000"
     d="M 0,0 H 12.568 V 11.432018 H 0 Z"
     id="path1612" />
  <path
     style="opacity:1;fill:#000000;fill-opacity:1;stroke:none;stroke-width:0.436344;stop-color:#000000"
     d="M 14.138328,0 H 25.135 V 2.267857 H 14.138328 Z"
     id="path1990" />
  <path
     style="opacity:1;fill:#000000;fill-opacity:1;stroke:none;stroke-width:0.436344;stop-color:#000000"
     d="M 14.138328,4.535714 H 25.135 V 6.803571 H 14.138328 Z"
     id="path1994" />
  <path
     style="opacity:1;fill:#000000;fill-opacity:1;stroke:none;stroke-width:0.436344;stop-color:#000000"
     d="M 14.138328,9.071428 H 25.135 v 2.267857 H 14.138328 Z"
     id="path1998" />
  <path
     style="opacity:1;fill:#000000;fill-opacity:1;stroke:none;stroke-width:0.659687;stop-color:#000000"
     d="M 1.6e-7,13.607143 H 25.135 V 15.875 H 1.6e-7 Z"
     id="path2000" />
  <path
     sodipodi:type="star"
     style="fill:#ffffff;stroke-width:2;stop-color:#000000"
     id="path2705"
     inkscape:flatsided="false"
     sodipodi:sides="5"
     sodipodi:cx="3.3104706"
     sodipodi:cy="10.248758"
     sodipodi:r1="8.8357296"
     sodipodi:r2="5.594213"
     sodipodi:arg1="-1.5707963"
     sodipodi:arg2="-0.89959367"
     inkscape:rounded="0.29"
     inkscape:randomized="0"
     d="M 3.3104708,1.4130287 C 4.9482268,1.4833118 5.4634752,4.9045424 6.7896694,5.8680741 8.0080896,6.7533037 11.310194,6.067395 11.713749,7.5183679 12.153,9.0976851 9.058437,10.644934 8.5518805,12.203967 c -0.4653909,1.432338 1.2073533,4.360868 -0.047899,5.193047 -1.3662837,0.905789 -3.7940774,-1.55919 -5.4333407,-1.559186 -1.5060476,4e-6 -3.7743388,2.495844 -4.9536824,1.559186 C -3.1667023,16.377505 -1.5725981,13.306815 -2.079162,11.747785 -2.5445597,10.315449 -5.619185,8.9294331 -5.0928076,7.5183675 -4.51987,5.9824876 -1.1068658,6.5496757 0.21932386,5.5861377 1.4377399,4.7009022 1.8058081,1.3484573 3.3104708,1.4130287 Z"
     transform="matrix(0.20842936,0,0,0.20842936,2.0816358,0.73620113)"
     inkscape:transform-center-y="-0.17585963" />
  <path
     sodipodi:type="star"
     style="fill:#ffffff;stroke-width:2;stop-color:#000000"
     id="path2787"
     inkscape:flatsided="false"
     sodipodi:sides="5"
     sodipodi:cx="3.3104706"
     sodipodi:cy="10.248758"
     sodipodi:r1="8.8357296"
     sodipodi:r2="5.594213"
     sodipodi:arg1="-1.5707963"
     sodipodi:arg2="-0.89959367"
     inkscape:rounded="0.29"
     inkscape:randomized="0"
     d="M 3.3104708,1.4130287 C 4.9482268,1.4833118 5.4634752,4.9045424 6.7896694,5.8680741 8.0080896,6.7533037 11.310194,6.067395 11.713749,7.5183679 12.153,9.0976851 9.058437,10.644934 8.5518805,12.203967 c -0.4653909,1.432338 1.2073533,4.360868 -0.047899,5.193047 -1.3662837,0.905789 -3.7940774,-1.55919 -5.4333407,-1.559186 -1.5060476,4e-6 -3.7743388,2.495844 -4.9536824,1.559186 C -3.1667023,16.377505 -1.5725981,13.306815 -2.079162,11.747785 -2.5445597,10.315449 -5.619185,8.9294331 -5.0928076,7.5183675 -4.51987,5.9824876 -1.1068658,6.5496757 0.21932386,5.5861377 1.4377399,4.7009022 1.8058081,1.3484573 3.3104708,1.4130287 Z"
     transform="matrix(0.20842936,0,0,0.20842936,9.0113149,0.73620113)"
     inkscape:transform-center-y="-0.17585963" />
  <path
     sodipodi:type="star"
     style="fill:#ffffff;stroke-width:2;stop-color:#000000"
     id="path2789"
     inkscape:flatsided="false"
     sodipodi:sides="5"
     sodipodi:cx="3.3104706"
     sodipodi:cy="10.248758"
     sodipodi:r1="8.8357296"
     sodipodi:r2="5.594213"
     sodipodi:arg1="-1.5707963"
     sodipodi:arg2="-0.89959367"
     inkscape:rounded="0.29"
     inkscape:randomized="0"
     d="M 3.3104708,1.4130287 C 4.9482268,1.4833118 5.4634752,4.9045424 6.7896694,5.8680741 8.0080896,6.7533037 11.310194,6.067395 11.713749,7.5183679 12.153,9.0976851 9.058437,10.644934 8.5518805,12.203967 c -0.4653909,1.432338 1.2073533,4.360868 -0.047899,5.193047 -1.3662837,0.905789 -3.7940774,-1.55919 -5.4333407,-1.559186 -1.5060476,4e-6 -3.7743388,2.495844 -4.9536824,1.559186 C -3.1667023,16.377505 -1.5725981,13.306815 -2.079162,11.747785 -2.5445597,10.315449 -5.619185,8.9294331 -5.0928076,7.5183675 -4.51987,5.9824876 -1.1068658,6.5496757 0.21932386,5.5861377 1.4377399,4.7009022 1.8058081,1.3484573 3.3104708,1.4130287 Z"
     transform="matrix(0.20842936,0,0,0.20842936,5.5250783,3.5905267)"
     inkscape:transform-center-y="-0.17585963" />
  <path
     sodipodi:type="star"
     style="fill:#ffffff;stroke-width:2;stop-color:#000000"
     id="path2791"
     inkscape:flatsided="false"
     sodipodi:sides="5"
     sodipodi:cx="3.3104706"
     sodipodi:cy="10.248758"
     sodipodi:r1="8.8357296"
     sodipodi:r2="5.594213"
     sodipodi:arg1="-1.5707963"
     sodipodi:arg2="-0.89959367"
     inkscape:rounded="0.29"
     inkscape:randomized="0"
     d="M 3.3104708,1.4130287 C 4.9482268,1.4833118 5.4634752,4.9045424 6.7896694,5.8680741 8.0080896,6.7533037 11.310194,6.067395 11.713749,7.5183679 12.153,9.0976851 9.058437,10.644934 8.5518805,12.203967 c -0.4653909,1.432338 1.2073533,4.360868 -0.047899,5.193047 -1.3662837,0.905789 -3.7940774,-1.55919 -5.4333407,-1.559186 -1.5060476,4e-6 -3.7743388,2.495844 -4.9536824,1.559186 C -3.1667023,16.377505 -1.5725981,13.306815 -2.079162,11.747785 -2.5445597,10.315449 -5.619185,8.9294331 -5.0928076,7.5183675 -4.51987,5.9824876 -1.1068658,6.5496757 0.21932386,5.5861377 1.4377399,4.7009022 1.8058081,1.3484573 3.3104708,1.4130287 Z"
     transform="matrix(0.20842936,0,0,0.20842936,9.0113149,6.4448515)"
     inkscape:transform-center-y="-0.17585963" />
  <path
     sodipodi:type="star"
     style="fill:#ffffff;stroke-width:2;stop-color:#000000"
     id="path2793"
     inkscape:flatsided="false"
     sodipodi:sides="5"
     sodipodi:cx="3.3104706"
     sodipodi:cy="10.248758"
     sodipodi:r1="8.8357296"
     sodipodi:r2="5.594213"
     sodipodi:arg1="-1.5707963"
     sodipodi:arg2="-0.89959367"
     inkscape:rounded="0.29"
     inkscape:randomized="0"
     d="M 3.3104708,1.4130287 C 4.9482268,1.4833118 5.4634752,4.9045424 6.7896694,5.8680741 8.0080896,6.7533037 11.310194,6.067395 11.713749,7.5183679 12.153,9.0976851 9.058437,10.644934 8.5518805,12.203967 c -0.4653909,1.432338 1.2073533,4.360868 -0.047899,5.193047 -1.3662837,0.905789 -3.7940774,-1.55919 -5.4333407,-1.559186 -1.5060476,4e-6 -3.7743388,2.495844 -4.9536824,1.559186 C -3.1667023,16.377505 -1.5725981,13.306815 -2.079162,11.747785 -2.5445597,10.315449 -5.619185,8.9294331 -5.0928076,7.5183675 -4.51987,5.9824876 -1.1068658,6.5496757 0.21932386,5.5861377 1.4377399,4.7009022 1.8058081,1.3484573 3.3104708,1.4130287 Z"
     transform="matrix(0.20842936,0,0,0.20842936,2.0816358,6.4448518)"
     inkscape:transform-center-y="-0.17585963" />
</svg>
