<svg width="124" height="41" viewBox="0 0 124 41" fill="none" xmlns="http://www.w3.org/2000/svg">
<path d="M19.5277 14.7387C19.4121 14.7007 19.258 14.7387 19.1425 14.7387L14.6739 15.7634C14.2501 15.9152 13.9805 16.2947 13.9805 16.7122C13.9805 17.5472 13.9805 18.496 13.9805 18.7996C13.9805 19.3309 14.4813 19.7104 15.0206 19.5966C16.0607 19.3689 16.1762 19.3309 16.3689 19.255V27.3768C16.3689 27.9461 16.8311 28.4395 17.4475 28.4395H19.258C19.8359 28.4395 20.3366 27.9841 20.3366 27.3768V15.7634C20.3752 15.27 19.9899 14.8146 19.5277 14.7387Z" fill="black"/>
<path d="M20.7596 39.7115C31.6229 39.7115 40.406 31.0584 40.406 20.3558C40.406 9.65317 31.6229 1 20.7596 1C9.93488 1 1.11328 9.65317 1.11328 20.3558C1.11328 31.0584 9.89635 39.7115 20.7596 39.7115ZM4.50324 21.001C4.50324 11.9683 11.938 4.64344 21.1063 4.64344C30.2746 4.64344 37.7094 11.9683 37.7094 21.001C37.7094 30.0336 30.2746 37.3585 21.1063 37.3585C11.938 37.3585 4.50324 30.0336 4.50324 21.001Z" fill="url(#paint0_linear)"/>
<path d="M38.7865 17.7749C38.7865 25.2136 32.6614 31.248 25.1111 31.248C24.7258 31.248 24.3406 31.248 23.9554 31.2101C22.453 32.1589 20.681 32.7661 18.7934 32.9179C20.5269 33.5631 22.4145 33.9427 24.3791 33.9427C33.0081 33.9427 40.0192 27.0353 40.0192 18.5339C40.0192 16.902 39.7495 15.308 39.2873 13.7899C38.6709 12.082 37.8234 10.526 36.7448 9.08377C33.8941 5.44033 29.4256 3.12523 24.3791 3.12523C17.2525 3.08728 11.2816 7.71748 9.35547 14.1315C10.357 13.0308 11.6283 12.12 13.0151 11.4748C15.3264 7.18615 19.872 4.30176 25.1111 4.30176C32.6614 4.30176 38.7865 10.3362 38.7865 17.7749Z" fill="url(#paint1_linear)"/>
<path d="M10.6648 30.4512C9.5862 29.5783 8.66166 28.5536 7.96826 27.3771C9.27802 34.2085 15.326 39.3321 22.6067 39.3321C30.8505 39.3321 37.5148 32.7663 37.5148 24.6445C37.5148 16.5227 30.8505 9.95691 22.6067 9.95691C21.3355 9.95691 20.0642 10.1087 18.8315 10.4123C20.0257 10.5262 21.1429 10.7919 22.183 11.2093C29.0785 11.4371 34.6257 17.054 34.6257 23.8855C34.6257 30.9067 28.8473 36.5995 21.7207 36.5995C17.021 36.5995 12.9376 34.1326 10.6648 30.4512Z" fill="url(#paint2_linear)"/>
<path d="M16.7548 37.4343C24.9986 37.4343 31.6629 30.8685 31.6629 22.7467C31.6629 14.6249 24.9986 8.05908 16.7548 8.05908C8.51103 8.05908 1.84668 14.6249 1.84668 22.7467C1.84668 30.8685 8.51103 37.4343 16.7548 37.4343ZM6.43083 21.6461C6.43083 15.4219 11.5543 10.3742 17.8719 10.3742C24.1896 10.3742 29.313 15.4219 29.313 21.6461C29.313 27.8703 24.1896 32.918 17.8719 32.918C11.5543 32.918 6.43083 27.8703 6.43083 21.6461Z" fill="url(#paint3_linear)"/>
<path d="M53.4642 11.3235C54.6199 11.3235 55.6985 11.5132 56.7386 11.8548C57.7787 12.1964 58.6647 12.8036 59.4737 13.5627C60.2441 14.3597 60.8605 15.3844 61.3228 16.6748C61.785 17.9652 62.0162 19.4833 62.0162 21.305V31.1726C62.0162 31.5142 61.8621 31.666 61.5154 31.666H58.0098C57.7017 31.666 57.5091 31.5142 57.5091 31.1726V21.9502C57.5091 20.8116 57.3935 19.8248 57.1238 19.0658C56.8542 18.3067 56.5845 17.6616 56.1608 17.2061C55.737 16.7507 55.2362 16.4091 54.6969 16.2194C54.1191 16.0296 53.6568 15.9157 53.0405 15.9157C51.6922 15.9157 50.6136 16.4091 49.8431 17.3959C49.0342 18.3826 48.4948 20.1285 48.4948 21.7604V31.1347C48.4948 31.4763 48.3408 31.6281 47.9941 31.6281H44.45C44.1418 31.6281 43.9492 31.4763 43.9492 31.1347V12.0446C43.9492 11.703 44.1033 11.5512 44.45 11.5512H45.9909C46.5687 11.5512 47.2621 11.6651 47.84 12.1964C48.2637 12.6139 48.4563 13.2591 48.4563 13.7524C48.8415 13.2211 49.612 12.6898 50.0357 12.3862C51.0373 11.6651 52.3085 11.3235 53.4642 11.3235Z" fill="black"/>
<path d="M81.1595 27.7187C81.2751 27.8326 81.3521 27.9464 81.3521 28.0983C81.3521 28.2501 81.3136 28.3639 81.198 28.5157C80.1964 29.6164 78.9637 30.4893 77.5384 31.0965C76.1131 31.7037 74.7263 32.0453 73.378 32.0453C71.8756 32.0453 70.4888 31.7796 69.1791 31.2863C67.9078 30.7929 66.7907 30.0718 65.8662 29.1609C64.9416 28.2501 64.2097 27.1494 63.7089 25.897C63.2081 24.6446 62.9385 23.2403 62.9385 21.7222C62.9385 20.3559 63.2081 19.0276 63.7089 17.7752C64.2097 16.5227 64.9031 15.4221 65.7506 14.4733C66.6366 13.5245 67.6382 12.7654 68.8324 12.1962C70.0266 11.6269 71.2978 11.3612 72.6461 11.3612C73.9944 11.3612 75.2656 11.6269 76.4598 12.1203C77.654 12.6136 78.6941 13.3347 79.5416 14.2835C80.4276 15.2324 81.0825 16.4468 81.5832 17.8511C82.084 19.2933 82.3152 20.9252 82.3152 22.747C82.3152 23.0126 82.1996 23.2403 82.0455 23.3921C81.8914 23.544 81.7373 23.6578 81.3521 23.6578H67.7152C67.8308 24.1891 67.9849 24.7205 68.3701 25.2139C68.7553 25.7072 69.1791 26.1627 69.7184 26.5042C70.2192 26.8838 70.797 27.1874 71.4134 27.3772C72.0297 27.6049 72.6461 27.7187 73.2239 27.7187C74.3411 27.7187 75.3041 27.491 76.1131 27.0356C76.9606 26.5802 77.5769 26.1247 77.9622 25.7452C78.1933 25.5175 78.4244 25.5175 78.6556 25.7072L81.1595 27.7187ZM77.6925 19.9764C77.4999 18.724 76.9991 17.6613 76.1516 16.7884C75.3041 15.9155 74.1484 15.536 72.8002 15.536C71.3748 15.536 70.2577 15.9155 69.3717 16.7884C68.4857 17.6613 67.9849 18.724 67.7923 19.9764H77.6925Z" fill="black"/>
<path d="M88.5936 31.4004L80.8507 12.1205C80.8121 12.0067 80.8121 11.8548 80.8507 11.741C80.9277 11.6271 81.0048 11.5512 81.1203 11.5512H84.8955C85.2037 11.5512 85.4348 11.703 85.5119 12.0067L89.6338 22.3297L94.3335 11.8548C94.449 11.5512 94.6802 11.3994 94.9884 11.3994C95.2965 11.3994 95.5277 11.5512 95.6818 11.8169L100.459 22.3297L104.426 12.0067C104.542 11.703 104.734 11.5512 105.004 11.5512H108.779C108.895 11.5512 109.01 11.6271 109.049 11.741C109.126 11.8548 109.126 11.9687 109.049 12.1205L101.46 31.4004C101.345 31.7419 101.113 31.8938 100.805 31.9317C100.497 31.9697 100.227 31.7799 100.073 31.4763L94.9884 20.8496L89.9805 31.4763C89.8264 31.7799 89.5952 31.9317 89.2485 31.9317C88.9018 31.9317 88.7092 31.704 88.5936 31.4004Z" fill="black"/>
<path d="M115.829 32.0075C114.75 32.0075 113.749 31.8556 112.863 31.59C111.977 31.3243 111.206 30.9827 110.513 30.6032C109.858 30.2237 109.28 29.8442 108.818 29.4646C108.356 29.0851 108.009 28.7435 107.778 28.4779C107.701 28.364 107.662 28.3261 107.662 28.2122C107.662 28.0983 107.701 27.9465 107.816 27.8327L109.819 25.4796C110.012 25.214 110.282 25.214 110.513 25.4417C110.705 25.5935 112.092 26.8839 114.018 27.605C114.596 27.8327 115.212 27.9086 115.906 27.9086C116.638 27.9086 117.216 27.7568 117.678 27.4152C118.14 27.0736 118.333 26.6941 118.333 26.2007C118.333 25.7832 118.179 25.4037 117.909 25.1001C117.639 24.7965 117.293 24.6067 116.907 24.379C116.06 23.8856 113.286 23.0507 112.285 22.5573C111.591 22.2157 110.975 21.8362 110.474 21.3428C109.935 20.8874 109.511 20.2801 109.203 19.597C108.895 18.9138 108.741 18.0789 108.741 17.0542C108.741 16.1433 108.933 15.3084 109.28 14.5873C109.627 13.8662 110.089 13.2589 110.705 12.7655C111.283 12.2722 112.246 11.8167 113.055 11.5511C115.212 10.9059 116.984 11.2095 118.256 11.627C119.065 11.8926 119.758 12.2342 120.374 12.6137C120.991 12.9933 121.492 13.3728 121.877 13.7903C122.262 14.1698 122.57 14.5114 122.763 14.777C122.955 15.0427 122.917 15.2704 122.686 15.4602L120.49 17.3198C120.259 17.5096 120.028 17.4717 119.835 17.2819C119.643 17.0921 118.949 16.409 118.217 15.9536C117.871 15.7258 117.447 15.574 117.023 15.4222C116.561 15.2704 116.06 15.1945 115.521 15.1945C114.866 15.1945 114.326 15.4222 113.903 15.8017C113.517 16.1433 113.325 16.5987 113.325 16.9783C113.325 17.3957 113.44 17.7373 113.672 17.965C113.903 18.2307 114.211 18.4584 114.558 18.6102C115.521 19.0657 118.025 19.7868 119.257 20.394C119.989 20.7735 120.606 21.2289 121.145 21.7223C121.684 22.2537 122.108 22.8609 122.416 23.582C122.724 24.3031 122.878 25.1381 122.878 26.1628C122.878 28.0604 122.224 29.5026 120.914 30.4514C119.643 31.5141 117.948 32.0075 115.829 32.0075Z" fill="black"/>
<defs>
<linearGradient id="paint0_linear" x1="2.70221" y1="17.4593" x2="30.8488" y2="22.1107" gradientUnits="userSpaceOnUse">
<stop stop-color="#DD4C2F"/>
<stop offset="1" stop-color="#CF1818"/>
</linearGradient>
<linearGradient id="paint1_linear" x1="22.386" y1="8.31045" x2="25.7286" y2="18.364" gradientUnits="userSpaceOnUse">
<stop stop-color="#DD4C2F"/>
<stop offset="1" stop-color="#CF1818"/>
</linearGradient>
<linearGradient id="paint2_linear" x1="17.5265" y1="36.8013" x2="27.9706" y2="18.6524" gradientUnits="userSpaceOnUse">
<stop stop-color="#DD4C2F"/>
<stop offset="1" stop-color="#CF1818"/>
</linearGradient>
<linearGradient id="paint3_linear" x1="4.9171" y1="22.6531" x2="26.2229" y2="22.8266" gradientUnits="userSpaceOnUse">
<stop stop-color="#DD4C2F"/>
<stop offset="1" stop-color="#CF1818"/>
</linearGradient>
</defs>
</svg>
