<?xml version="1.0" encoding="utf-8"?>
<!-- Generator: Adobe Illustrator 25.1.0, SVG Export Plug-In . SVG Version: 6.00 Build 0)  -->
<svg version="1.1" id="Layer_1" xmlns="http://www.w3.org/2000/svg" xmlns:xlink="http://www.w3.org/1999/xlink" x="0px" y="0px"
	 width="11px" height="18px" viewBox="0 0 11 18" style="enable-background:new 0 0 11 18;" xml:space="preserve">
<style type="text/css">
	.st0{fill:#4D4D4D;}
</style>
<g>
	<path class="st0" d="M10.3,13.2c-0.5,1.5-2.1,2.5-3.7,2.6v1.7c0,0.3-0.3,0.6-0.6,0.6H4.9c-0.3,0-0.6-0.3-0.6-0.6v-1.7
		c-1.1,0-2.2-0.4-3-1.1c-0.3-0.2-0.3-0.6-0.1-0.9l1.2-1.2c0.2-0.2,0.5-0.2,0.7-0.1c0.4,0.2,0.8,0.4,1.2,0.4h2.3c0.6,0,1-0.5,1-1
		c0-0.5-0.3-0.9-0.7-1L3.4,9.9C1.8,9.4,0.6,8.1,0.5,6.5C0.2,4.2,2,2.2,4.3,2.2h0.1V0.6C4.4,0.3,4.6,0,4.9,0h1.1
		c0.3,0,0.6,0.3,0.6,0.6v1.7c1.1,0,2.2,0.4,3,1.1C9.9,3.5,10,3.9,9.7,4.2L8.5,5.4C8.3,5.5,8,5.6,7.8,5.4C7.5,5.2,7,5.1,6.6,5.1H4.3
		c-0.6,0-1,0.5-1,1c0,0.5,0.3,0.9,0.7,1l3.8,1.1C9.8,8.8,11.1,11,10.3,13.2z"/>
</g>
</svg>
