<svg width="106" height="28" viewBox="0 0 106 28" fill="none" xmlns="http://www.w3.org/2000/svg">
<path fill-rule="evenodd" clip-rule="evenodd" d="M11.3693 27.2959V27.2735C12.666 27.2347 14.3618 27.2153 16.4567 27.2153L16.9816 27.2159C18.881 27.22 20.5033 27.2466 21.8485 27.2958V25.7469C20.8792 25.6664 20.3137 25.6128 20.1522 25.586C19.681 25.4921 19.3646 25.3915 19.203 25.2842C19.0953 25.2172 19.0078 25.1099 18.9405 24.9624C18.8463 24.7612 18.7924 24.3455 18.779 23.7153C18.7251 22.2938 18.6982 21.0936 18.6982 20.1146V16.7353C18.6847 14.8578 18.7251 13.785 18.8194 13.5168C18.9809 13.0609 19.3713 12.6083 19.9906 12.159C20.6099 11.7098 21.3907 11.4852 22.3331 11.4852C23.2755 11.4852 24.0294 11.7098 24.5949 12.159C25.1603 12.6083 25.5339 13.2017 25.7156 13.9392C25.8974 14.6768 25.9883 16.219 25.9883 18.5657V20.1549L25.8873 23.4538C25.7392 25.4921 25.6517 26.6521 25.6248 26.9337L25.9883 27.2958C26.971 27.2019 28.1288 27.155 29.4616 27.155C30.6194 27.155 32.1138 27.2019 33.9447 27.2958V25.7469C33.4197 25.6933 33.0427 25.6597 32.8139 25.6463C32.1946 25.6061 31.7941 25.5089 31.6123 25.3546C31.4306 25.2004 31.3094 24.8551 31.2488 24.3187C31.1882 23.7823 31.1512 22.3809 31.1377 20.1146L31.1176 18.0428C31.1176 17.8148 31.1243 17.6203 31.1377 17.4594C31.1647 17.0437 31.1781 16.0715 31.1781 14.5427C31.1781 13.1883 31.0772 12.1926 30.8752 11.5556C30.6733 10.9186 30.3233 10.3084 29.8251 9.72509C29.327 9.14175 28.7178 8.68915 27.9976 8.36731C27.2773 8.04546 26.1969 7.88454 24.7564 7.88454C24.2179 7.88454 23.7972 7.91472 23.4943 7.97506C23.1914 8.03541 22.8178 8.15275 22.3735 8.32708L18.6982 11.2639V8.02535L18.153 7.78397C17.1836 8.2265 16.3153 8.54835 15.5479 8.7495C14.7805 8.95065 13.1717 9.25909 10.7215 9.6748V11.2237C11.987 11.2639 12.7477 11.331 13.0035 11.4248C13.165 11.4785 13.2828 11.5623 13.3569 11.6763C13.4309 11.7903 13.4881 12.2764 13.5285 13.1346C13.6093 14.8377 13.6497 16.286 13.6497 17.4795L13.6495 20.361C13.6483 21.0791 13.6416 21.6072 13.6295 21.9451L13.5487 23.7354C13.5352 24.4461 13.4612 24.9289 13.3266 25.1837C13.2323 25.3446 13.091 25.4586 12.9025 25.5256C12.5877 25.6406 12.0766 25.7108 11.3693 25.7361V25.7269C9.96914 25.6732 9.08734 25.5592 8.72384 25.3849C8.56229 25.3045 8.45459 25.1435 8.40074 24.9022C8.29304 24.473 8.23919 23.0918 8.23919 20.7584V13.9192C8.23919 12.082 8.31996 10.1174 8.48151 8.02544L7.99686 7.76395C6.77175 8.26012 5.64088 8.6289 4.60425 8.87029C3.56762 9.11167 2.03287 9.33964 0 9.5542V11.083C1.56168 11.0964 2.47714 11.1902 2.74639 11.3646C2.86756 11.445 2.95507 11.6194 3.00892 11.8876C3.12274 12.4293 3.1831 14.5685 3.19 18.3054L3.19037 19.3963C3.18539 22.2504 3.11817 24.032 2.98872 24.7412C2.93487 25.0899 2.80025 25.3279 2.58484 25.4553C2.36944 25.5827 1.50782 25.7001 0 25.8073V27.2959C1.4809 27.2422 3.19066 27.2154 5.1293 27.2154C7.12612 27.2154 8.9902 27.2366 10.7215 27.2789V27.2958C10.8095 27.2923 10.8998 27.2889 10.9924 27.2857C11.1187 27.289 11.2444 27.2924 11.3693 27.2959ZM10.7215 27.2789V25.7469C10.9532 25.7469 11.1691 25.7433 11.3693 25.7361V27.2735C11.2397 27.2774 11.114 27.2814 10.9924 27.2857L10.7215 27.2789ZM45.7257 23.1923C44.918 25.2441 44.3391 26.6656 43.9891 27.4568H40.4551C39.7685 25.5927 38.9473 23.4605 37.9914 21.0601L35.3258 14.3416C35.0835 13.7381 34.6325 12.6989 33.9728 11.2237C33.7574 10.7544 33.5353 10.4459 33.3064 10.2984C32.9429 10.0839 32.3505 9.96988 31.5293 9.95647V8.38748C33.441 8.42771 35.3123 8.44783 37.1433 8.44783C38.8665 8.44783 40.5628 8.42771 42.2322 8.38748V9.97659C41.4513 9.97659 40.758 10.0302 40.1522 10.1375C39.9772 10.1777 39.8459 10.2481 39.7584 10.3487C39.6709 10.4493 39.6271 10.5666 39.6271 10.7007L39.7079 11.0628L40.4955 13.4968L42.111 17.7008L42.8986 19.6721C43.3698 20.8791 43.6794 21.6501 43.8275 21.9854L45.1401 18.9681L46.372 15.9709C47.1797 14.0801 47.725 12.6653 48.0077 11.7266C48.1423 11.2573 48.2096 10.9153 48.2096 10.7007C48.2096 10.4862 48.1087 10.3219 47.9067 10.2079C47.7048 10.0939 46.9307 10.0101 45.5844 9.95647V8.38748C46.9711 8.42771 48.2702 8.44783 49.4818 8.44783C50.6396 8.44783 52.0196 8.42771 53.6216 8.38748V9.9967C52.6119 10.1174 52.0162 10.218 51.8345 10.2984C51.6527 10.3789 51.4878 10.5398 51.3397 10.7812C51.057 11.2103 50.4714 12.4172 49.5828 14.4019L47.6846 18.6664L46.8768 20.4365C46.5268 21.2143 46.1431 22.1329 45.7257 23.1923ZM61.7076 27.9999C62.825 27.9999 63.8213 27.8859 64.6963 27.6579C65.8676 27.3361 67.0052 26.8399 68.1091 26.1694L68.9977 24.1981L68.513 23.6349C67.4629 24.1579 66.6148 24.5032 65.9686 24.6708C65.3223 24.8384 64.6156 24.9222 63.8482 24.9222C62.0711 24.9222 60.5767 24.3087 59.3651 23.0817C58.1535 21.8547 57.4938 20.1817 57.3861 18.0629H58.7189C58.9343 18.0629 59.1295 18.0562 59.3045 18.0428C59.4795 18.0294 60.395 18.016 62.0509 18.0026C63.7068 17.9892 65.0396 17.9422 66.0493 17.8618C66.3724 17.8484 66.9917 17.7545 67.9072 17.5802C68.5938 17.4461 69.1054 17.3254 69.4419 17.2181C69.4689 16.8694 69.4823 16.5074 69.4823 16.1319C69.4823 14.469 69.2434 13.0542 68.7654 11.8875C68.2875 10.7209 67.4697 9.76204 66.3119 9.01107C65.1541 8.2601 63.6732 7.88461 61.8692 7.88461C61.8395 7.88461 61.7949 7.88362 61.737 7.88232C61.1348 7.86887 59.0911 7.82322 57.3861 8.52841C55.6366 9.252 54.2871 10.8662 53.9822 11.2752C53.4735 11.9574 52.9867 13.126 52.8424 13.5571C52.3712 14.9384 52.1356 16.5074 52.1356 18.2641C52.1356 19.471 52.2568 20.584 52.4991 21.6032C52.7414 22.6224 53.1352 23.5209 53.6805 24.2987C54.2257 25.0765 54.8585 25.7336 55.5787 26.27C56.299 26.8064 57.1673 27.2288 58.1837 27.5372C59.2002 27.8457 60.3748 27.9999 61.7076 27.9999ZM57.2443 15.8704C58.0386 15.9911 59.3647 16.0515 61.2225 16.0515C62.4073 16.0515 63.3968 15.9911 64.1911 15.8704C64.2449 13.7382 63.9555 12.243 63.3227 11.3847C62.6765 10.5399 61.8418 10.1175 60.8187 10.1175C59.7686 10.1175 58.9002 10.56 58.2136 11.4451C57.5136 12.3436 57.1905 13.8187 57.2443 15.8704ZM81.7585 27.296L84.6261 27.2759C85.003 27.2759 85.6761 27.2424 86.6455 27.1753L86.7868 27.0144C86.8272 25.4722 86.982 23.4138 87.2513 20.839H85.5954C85.178 22.9846 84.8953 24.1916 84.7472 24.4598C84.6934 24.567 84.6126 24.6408 84.5049 24.681C84.3164 24.7615 83.3808 24.8621 81.6979 24.9828C80.944 25.023 79.4766 25.0431 77.2956 25.0431L75.8012 25.023C76.084 24.5805 77.2418 22.9209 79.2746 20.0445C81.3075 17.168 83.8183 13.7584 86.807 9.81586V8.38767C83.2529 8.48154 81.1863 8.52848 80.6074 8.52848L72.8731 8.44802L70.9749 8.34744L70.6719 8.36756L70.4902 8.5486C70.5037 9.09841 70.5104 9.4739 70.5104 9.67505L70.5102 9.70979C70.5063 10.0537 70.4525 11.5105 70.3488 14.0803H71.9442C72.0653 13.4366 72.1798 12.746 72.2875 12.0084C72.3548 11.5122 72.4557 11.1938 72.5904 11.0529C72.725 10.9121 73.102 10.8216 73.7212 10.7814C74.7309 10.7009 76.0503 10.6607 77.6793 10.6607H80.042C77.0129 14.9922 74.2126 18.861 71.6413 22.2672C70.093 24.3324 69.1439 25.5594 68.7939 25.9483V27.296C69.1708 27.2692 70.4363 27.2357 72.5904 27.1954C74.5571 27.1587 75.7607 27.1387 76.201 27.1356L76.3061 27.1351C77.1004 27.1351 77.9485 27.1552 78.8505 27.1954C80.5872 27.2625 81.5565 27.296 81.7585 27.296ZM103.375 27.2759L100.507 27.296C100.306 27.296 99.3362 27.2625 97.5995 27.1954C96.6975 27.1552 95.8493 27.1351 95.0551 27.1351L94.95 27.1356C94.5096 27.1387 93.3061 27.1587 91.3393 27.1954C89.1853 27.2357 87.9198 27.2692 87.5429 27.296V25.9483C87.8929 25.5594 88.842 24.3324 90.3902 22.2672C92.9616 18.861 95.7618 14.9922 98.791 10.6607H96.4283C94.7993 10.6607 93.4799 10.7009 92.4702 10.7814C91.8509 10.8216 91.474 10.9121 91.3393 11.0529C91.2047 11.1938 91.1037 11.5122 91.0364 12.0084C90.9287 12.746 90.8143 13.4366 90.6931 14.0803H89.0978C89.2015 11.5105 89.2553 10.0537 89.2591 9.70979L89.2594 9.67505C89.2594 9.4739 89.2526 9.09841 89.2392 8.5486L89.4209 8.36756L89.7238 8.34744L91.6221 8.44802L99.3564 8.52848C99.9353 8.52848 102.002 8.48154 105.556 8.38767V9.81586C102.567 13.7584 100.056 17.168 98.0236 20.0445C95.9907 22.9209 94.8329 24.5805 94.5502 25.023L96.0446 25.0431C98.2255 25.0431 99.693 25.023 100.447 24.9828C102.13 24.8621 103.065 24.7615 103.254 24.681C103.362 24.6408 103.442 24.567 103.496 24.4598C103.644 24.1916 103.927 22.9846 104.344 20.839H106C105.731 23.4138 105.576 25.4722 105.536 27.0144L105.394 27.1753C104.425 27.2424 103.752 27.2759 103.375 27.2759Z" fill="#3D3D3D"/>
<path d="M5.53281 6.17539C6.39442 6.17539 7.12478 5.87366 7.72387 5.2702C8.32296 4.66674 8.6225 3.93589 8.6225 3.07764C8.6225 2.23279 8.32296 1.50864 7.72387 0.905187C7.12478 0.301729 6.39442 0 5.53281 0C4.6712 0 3.94084 0.301729 3.34175 0.905187C2.74266 1.50864 2.44312 2.23279 2.44312 3.07764C2.44312 3.93589 2.74603 4.66674 3.35185 5.2702C3.95767 5.87366 4.68466 6.17539 5.53281 6.17539Z" fill="#F7AF00"/>
</svg>
