<svg xmlns="http://www.w3.org/2000/svg" xmlns:xlink="http://www.w3.org/1999/xlink" class="sheep"  viewBox="0 0 14 9">
    <defs>
    <linearGradient id="c">
      <stop offset="0" stop-color="#ecc6b8"/>
      <stop offset="1" stop-color="#ecc6b8" stop-opacity="0"/>
    </linearGradient>
    <radialGradient xlink:href="#c" id="f"  r="1" gradientTransform="translate(2.5, -2)" gradientUnits="userSpaceOnUse"/>
    </defs>
    <path d="M5.88 4.87l-.22 1.12.3.67.26.2-.47.41-.26-.07-.66-1.03.2-1.36zm1.5.41l-.3.58-.45.46-.1.43-.19.35.37.49.26-.45.2-.6 1.1-1.18z"  fill="#841890"/>
    <path d="M5.4 7.33l.28.14-.5.46-.35-.12-.3-.6-.42-1.04.04-1.61 1.13.17-.38 1.57zm1.5.35v.24l.57.42.09-.27-.1-.28.27-.95.46-.73.58-.96-1.08.01-.63 1.64z"  fill="#841890"/>
    <path fill="#fff" d="M6.75 0.96c-.27 0-.5.11-.69.3-.07-.5-.78-.26-.73.06a.79.79 0 00-1.29.6.54.54 0 00-.64.53c0 .08.01.14.04.2a.2.2 0 00-.25.3.53.53 0 00.25 1.02V4c0 .48.32.9.79 1.02a.35.35 0 00.59.37.73.73 0 001.15-.27.35.35 0 00.71 0c.03.33.28.6.66.62.15 0 .3-.07.4-.17a.35.35 0 00.62.01 1.05 1.05 0 001.34-1.05.55.55 0 00.42-.57c.15-.02.3-.06.43-.15.1.12.18.1.3-.04.07.25.36.3.46.1.25.16.6.15.63-.02 0 0 .13.05.2.01.09-.04.12-.07.16-.2.06-.26.18-.5-.1-.69-.18-.12-.23-.55-.38-.59a.98.98 0 00-.08-.72c-.14-.25-.55-.55-.68-.5-.37-.33-.76-.18-1.1-.06a.95.95 0 00-.47.46.2.2 0 00-.4.07.96.96 0 00-.86-.05.43.43 0 00-.66-.14.96.96 0 00-.82-.48zm2.57.84z" />
    <ellipse ry=".26" rx=".38" cx="10.55" cy="2.53"  fill="#ecc6b8"/>
    <circle r=".18" cy="2.49" cx="11.08"  fill="#bb3397"/>
    <path d="M10.4 2.03l-.41.72-.32.42.38.52 1.4-.67-.11-1.15z"  fill="url(#f)"/>

</svg>
